<svg xmlns="http://www.w3.org/2000/svg" version="1.1" xmlns:xlink="http://www.w3.org/1999/xlink" xmlns:svgjs="http://svgjs.dev/svgjs" width="1440" height="560" preserveAspectRatio="none" viewBox="0 0 1440 560"><g mask="url(&quot;#SvgjsMask1739&quot;)" fill="none"><rect width="1440" height="560" x="0" y="0" fill="url(&quot;#SvgjsLinearGradient1740&quot;)"></rect><path d="M183.645,135.581C203.483,135.953,222.282,125.908,232.281,108.77C242.356,91.501,242.597,69.722,231.936,52.809C221.889,36.87,202.486,31.514,183.645,31.614C165.016,31.713,145.872,37.375,136.234,53.317C126.305,69.741,128.483,90.377,138.066,107.005C147.663,123.657,164.429,135.221,183.645,135.581" fill="rgba(28, 83, 142, 0.4)" class="triangle-float3"></path><path d="M428.141,264.417C449.359,264.247,468.492,251.697,478.551,233.014C488.118,215.246,484.822,194.469,475.416,176.615C465.18,157.185,450.099,137.716,428.141,137.326C405.724,136.927,388.469,155.127,377.861,174.88C367.893,193.441,365.999,215.461,376.315,233.831C386.842,252.577,406.642,264.589,428.141,264.417" fill="rgba(28, 83, 142, 0.4)" class="triangle-float3"></path><path d="M235.84,405.709C271.825,403.743,299.357,377.88,317.816,346.927C336.86,314.994,349.838,276.688,332.354,243.875C314.031,209.487,274.801,192.533,235.84,193.081C197.856,193.616,163.592,214.03,143.921,246.528C123.474,280.309,116.985,322.624,136.731,356.819C156.475,391.01,196.417,407.863,235.84,405.709" fill="rgba(28, 83, 142, 0.4)" class="triangle-float3"></path><path d="M741.993,536.534C799.285,538.663,841.637,489.832,870.334,440.199C899.07,390.498,916.781,331.435,889.907,280.703C861.56,227.189,802.413,193.835,741.993,197.917C686.993,201.633,649.066,248.967,625.069,298.595C604.43,341.278,608.266,388.685,629.176,431.236C653.492,480.718,686.897,534.486,741.993,536.534" fill="rgba(28, 83, 142, 0.4)" class="triangle-float1"></path><path d="M137.703,686.634C181.937,683.841,220.96,661.367,244.786,623.993C270.825,583.148,288.455,531.05,263.263,489.677C238.69,449.32,184.925,446.494,137.703,448.129C94.156,449.637,51.293,462.152,26.35,497.879C-2.897,539.771,-21.639,595.173,4.321,639.177C30.021,682.74,87.225,689.821,137.703,686.634" fill="rgba(28, 83, 142, 0.4)" class="triangle-float1"></path><path d="M1081.231,170.901C1097.56,171.53,1116.297,170.154,1124.476,156.007C1132.659,141.852,1124.043,125.201,1115.823,111.067C1107.667,97.042,1097.454,81.479,1081.231,81.646C1065.169,81.812,1055.388,97.582,1047.853,111.768C1040.922,124.817,1036.13,140.017,1043.393,152.885C1050.753,165.923,1066.27,170.325,1081.231,170.901" fill="rgba(28, 83, 142, 0.4)" class="triangle-float3"></path></g><defs><mask id="SvgjsMask1739"><rect width="1440" height="560" fill="#ffffff"></rect></mask><linearGradient x1="15.28%" y1="-39.29%" x2="84.72%" y2="139.29%" gradientUnits="userSpaceOnUse" id="SvgjsLinearGradient1740"><stop stop-color="#0e2a47" offset="0"></stop><stop stop-color="rgba(48, 0, 158, 1)" offset="1"></stop></linearGradient><style>
                @keyframes float1 {
                    0%{transform: translate(0, 0)}
                    50%{transform: translate(-10px, 0)}
                    100%{transform: translate(0, 0)}
                }

                .triangle-float1 {
                    animation: float1 5s infinite;
                }

                @keyframes float2 {
                    0%{transform: translate(0, 0)}
                    50%{transform: translate(-5px, -5px)}
                    100%{transform: translate(0, 0)}
                }

                .triangle-float2 {
                    animation: float2 4s infinite;
                }

                @keyframes float3 {
                    0%{transform: translate(0, 0)}
                    50%{transform: translate(0, -10px)}
                    100%{transform: translate(0, 0)}
                }

                .triangle-float3 {
                    animation: float3 6s infinite;
                }
            </style></defs></svg>