<svg xmlns="http://www.w3.org/2000/svg" version="1.1" xmlns:xlink="http://www.w3.org/1999/xlink" xmlns:svgjs="http://svgjs.dev/svgjs" width="1440" height="560" preserveAspectRatio="none" viewBox="0 0 1440 560"><g mask="url(&quot;#SvgjsMask3142&quot;)" fill="none"><rect width="1440" height="560" x="0" y="0" fill="url(&quot;#SvgjsLinearGradient3143&quot;)"></rect><path d="M1440 0L849.2 0L1440 26.04z" fill="rgba(255, 255, 255, .1)"></path><path d="M849.2 0L1440 26.04L1440 201.29L690.59 0z" fill="rgba(255, 255, 255, .075)"></path><path d="M690.59 0L1440 201.29L1440 268.06L352.56000000000006 0z" fill="rgba(255, 255, 255, .05)"></path><path d="M352.55999999999995 0L1440 268.06L1440 457.74L323.31999999999994 0z" fill="rgba(255, 255, 255, .025)"></path><path d="M0 560L223.51 560L0 392.89z" fill="rgba(0, 0, 0, .1)"></path><path d="M0 392.89L223.51 560L639.7 560L0 222.64z" fill="rgba(0, 0, 0, .075)"></path><path d="M0 222.64L639.7 560L654.84 560L0 159.96999999999997z" fill="rgba(0, 0, 0, .05)"></path><path d="M0 159.96999999999997L654.84 560L819.37 560L0 61.63999999999997z" fill="rgba(0, 0, 0, .025)"></path></g><defs><mask id="SvgjsMask3142"><rect width="1440" height="560" fill="#ffffff"></rect></mask><linearGradient x1="15.28%" y1="139.29%" x2="84.72%" y2="-39.29%" gradientUnits="userSpaceOnUse" id="SvgjsLinearGradient3143"><stop stop-color="#0e2a47" offset="0"></stop><stop stop-color="rgba(0, 0, 0, 1)" offset="1"></stop></linearGradient></defs></svg>